# xmcd CD database file
#
# Track frame offsets:
#	150
#	15832
#	33185
#	47445
#	64808
#	78399
#	92293
#	107944
#	122238
#	138610
#	153830
#	169447
#	181851
#	195798
#	210723
#
# Disc length: 3011 seconds
#
# Revision: 0
# Processed by: cddbd v1.5.2PL0 Copyright (c) Steve Scherf et al.
# Submitted via: CDex 1.51
#
DISCID=b70bc10f
DTITLE=Kenny Rogers - Greatest Love Songs
DYEAR=2007
DGENRE=Country
TTITLE0=Through The Years
TTITLE1=Lady
TTITLE2=You Are So Beautiful
TTITLE3=I Swear
TTITLE4=I Will Always Love You
TTITLE5=Love Me Tender
TTITLE6=Unchained Melody
TTITLE7=You Light Up My Life
TTITLE8=The Wind Beneath My Wings
TTITLE9=I Can't Help Falling In Love with You
TTITLE10=When I Fall In Love
TTITLE11=Somewhere My Love
TTITLE12=You Send Me
TTITLE13=Crazy
TTITLE14=Unforgettable
EXTD=YEAR: 2007
EXTT0=
EXTT1=
EXTT2=
EXTT3=
EXTT4=
EXTT5=
EXTT6=
EXTT7=
EXTT8=
EXTT9=
EXTT10=
EXTT11=
EXTT12=
EXTT13=
EXTT14=
PLAYORDER=
